# xmcd CD database file
#
# Track frame offsets:
#	150
#	15620
#	33304
#	47547
#	65474
#	86101
#	105849
#	128191
#	151011
#	166061
#	175497
#
# Disc length: 2519 seconds
#
# Revision: 0
# Processed by: cddbd v1.5.2PL0 Copyright (c) Steve Scherf et al.
# Submitted via: CDex 1.70beta2
#
DISCID=7b09d50b
DTITLE=Rene Miller and David Chalumeau - When you got
DYEAR=2008
DGENRE=Blues
TTITLE0=Muddy water
TTITLE1=I'll be seeing you
TTITLE2=Careless love
TTITLE3=Skylark
TTITLE4=Mississipi blues
TTITLE5=Seven sisters
TTITLE6=Baby blue
TTITLE7=Rag and dirty
TTITLE8=Anyday my luck is gonna change
TTITLE9=Folsom prison blues
TTITLE10=Moon river
EXTD=YEAR: 2008
EXTT0=
EXTT1=
EXTT2=
EXTT3=
EXTT4=
EXTT5=
EXTT6=
EXTT7=
EXTT8=
EXTT9=
EXTT10=
PLAYORDER=
